<?xml version="1.0" encoding="UTF-8"?>
<svg version="1.1" xmlns="http://www.w3.org/2000/svg" width="1024" height="1024">
<path d="M0 0 C337.92 0 675.84 0 1024 0 C1024 337.92 1024 675.84 1024 1024 C686.08 1024 348.16 1024 0 1024 C0 686.08 0 348.16 0 0 Z " fill="#FEFEFE" transform="translate(0,0)"/>
<path d="M0 0 C2.12333435 1.17027196 3.82716125 2.55424807 5.6875 4.109375 C37.99682911 30.52443461 82.15501608 42.17142495 122.65136719 47.47851562 C123.81313477 47.63513672 124.97490234 47.79175781 126.171875 47.953125 C127.73566895 48.14890137 127.73566895 48.14890137 129.33105469 48.34863281 C132.24004136 49.05858309 133.3407194 49.73961862 135.25 52 C137.38157424 55.65412726 138.1258739 57.3867278 138.14717102 61.55874634 C138.15790398 63.00014984 138.15790398 63.00014984 138.16885376 64.47067261 C138.17154266 65.52916412 138.17423157 66.58765564 138.17700195 67.67822266 C138.18357315 68.79088501 138.19014435 69.90354736 138.19691467 71.04992676 C138.21671252 74.75463936 138.22833553 78.45931094 138.23828125 82.1640625 C138.24235678 83.4341151 138.2464323 84.70416771 138.25063133 86.01270676 C138.26937828 92.06117728 138.28392314 98.10962318 138.2922433 104.15811503 C138.3019304 111.08340391 138.32800701 118.00836583 138.36874419 124.93353999 C138.40299945 130.97015578 138.41442651 137.00663896 138.41844749 143.04334641 C138.42326453 145.58574995 138.43473534 148.12815129 138.45348549 150.67049026 C138.66451788 181.2276813 133.86318295 209.06565479 119 236 C118.42378906 237.06605469 117.84757812 238.13210938 117.25390625 239.23046875 C110.41077746 251.44695502 101.67192122 261.94334926 92 272 C91.42975098 272.59748047 90.85950195 273.19496094 90.27197266 273.81054688 C82.26750543 282.15741665 74.04856408 289.80513293 64.75488281 296.69384766 C62.98583594 298.01054226 61.23843858 299.35248435 59.4921875 300.69921875 C42.60470922 313.57891354 23.89950968 323.4311996 5 333 C4.32001953 333.36657715 3.64003906 333.7331543 2.93945312 334.11083984 C-0.80301876 335.82661057 -4.06329481 335.77222063 -8 335 C-12.75450097 333.06258133 -17.2208285 330.7105812 -21.71972656 328.24462891 C-24.04747887 326.97408487 -26.39246486 325.74109134 -28.7421875 324.51171875 C-50.32383735 313.08790947 -70.40547608 299.33972676 -88.203125 282.60546875 C-90.75136677 280.23161783 -93.36194748 277.96008983 -96 275.6875 C-106.83082987 265.91545318 -115.32178427 254.32886927 -123 242 C-123.69867188 240.90429688 -124.39734375 239.80859375 -125.1171875 238.6796875 C-138.52655579 216.60901517 -145.31199434 190.1303495 -145.29052734 164.40429688 C-145.29724457 163.22049438 -145.30396179 162.03669189 -145.31088257 160.8170166 C-145.3296977 156.95088375 -145.33377677 153.08492561 -145.3359375 149.21875 C-145.33878955 147.87752711 -145.34198253 146.5363049 -145.34550858 145.19508362 C-145.36391556 138.18667903 -145.37218887 131.17834984 -145.37060547 124.16992188 C-145.36939878 117.65252178 -145.39062754 111.13544996 -145.4220928 104.61813307 C-145.44824443 98.99998919 -145.45897361 93.38195292 -145.45769465 87.76374865 C-145.45718572 84.4173847 -145.46468327 81.07154917 -145.48405075 77.72520447 C-145.50359592 74.00337027 -145.4979196 70.2823942 -145.48583984 66.56054688 C-145.49707886 65.45815674 -145.50831787 64.3557666 -145.51989746 63.2199707 C-145.45844093 55.78705072 -145.45844093 55.78705072 -143.1678772 51.85461426 C-138.15571796 47.56672286 -131.06929947 47.52959075 -124.75 46.75 C-85.58377356 41.46522285 -43.55967085 29.09928497 -13 3 C-8.77151968 -0.57476223 -5.41199954 -1.08420692 0 0 Z " fill="#17191A" transform="translate(263,332)"/>
<path d="M0 0 C4.11096683 1.45848639 7.3956433 3.4948416 11 5.9375 C43.38037073 27.17224764 81.25950416 38.75125577 119.21723938 45.04167175 C120.84081848 45.31108471 120.84081848 45.31108471 122.49719715 45.58594036 C123.32312209 45.72258004 124.14904703 45.85921972 125 46 C125.09401786 60.66592735 125.16425746 75.33181408 125.20724869 89.99798298 C125.22775315 96.80987519 125.25563725 103.62157867 125.30175781 110.43334961 C125.3463393 117.02102618 125.36921373 123.60858131 125.37950897 130.1964016 C125.38683516 132.69549815 125.40113905 135.19458542 125.42292023 137.69359779 C125.58002406 156.48533731 123.91790232 173.37810123 117.375 191.125 C117.0759375 191.98480469 116.776875 192.84460938 116.46875 193.73046875 C114.27194438 199.86402781 114.27194438 199.86402781 112 201 C112.00666183 199.93368851 112.01332367 198.86737701 112.02018738 197.76875305 C112.08100547 187.71921636 112.12597603 177.66971701 112.15543652 167.62003803 C112.17109162 162.4534011 112.19232722 157.28691275 112.22631836 152.12036133 C112.25891711 147.13423896 112.27685418 142.14825951 112.28463173 137.1620388 C112.29017429 135.2598362 112.30099755 133.35764141 112.31719017 131.45549965 C112.33897126 128.79088062 112.34196664 126.12685195 112.34057617 123.4621582 C112.351362 122.67597107 112.36214783 121.88978394 112.3732605 121.07977295 C112.34775188 116.56138323 111.90057122 113.5401488 109 110 C106.0058023 109.0019341 104.23199994 108.92166125 101.12060547 109.0168457 C95.57266536 109.15804971 90.02809828 109.22573035 84.47851562 109.26635742 C82.08649978 109.29698689 79.69466267 109.35082788 77.30371094 109.4284668 C58.07129497 110.02033575 58.07129497 110.02033575 53.128479 106.76889038 C50.07931301 103.61977551 48.40609758 99.93678196 46.8036499 95.90176392 C45.53805632 92.90685256 43.76668672 90.26937202 42.0078125 87.54296875 C40.71265517 85.42502102 39.41839639 83.30652357 38.125 81.1875 C33.12416429 73.01890867 28.06390429 64.89729778 22.82104492 56.88134766 C19.17948938 51.30945465 15.65169577 45.67091383 12.17041016 39.99755859 C10.58803278 37.4374628 9.13630639 35.13630639 7 33 C4.50739808 32.56553833 4.50739808 32.56553833 1.6875 32.5625 C0.74261719 32.52253906 -0.20226562 32.48257813 -1.17578125 32.44140625 C-5.01175121 33.20011124 -6.73051802 34.98515101 -9 38 C-11.27369716 41.40547303 -13.35855484 44.91062378 -15.4375 48.4375 C-16.6765998 50.50497747 -17.91753562 52.5713555 -19.16015625 54.63671875 C-19.79324707 55.69036621 -20.42633789 56.74401367 -21.07861328 57.82958984 C-24.11632299 62.84200386 -27.2343179 67.80163218 -30.375 72.75 C-30.9208374 73.61681396 -31.4666748 74.48362793 -32.02905273 75.37670898 C-35.47423188 80.79145232 -39.14367953 85.98853723 -42.94238281 91.16015625 C-64.24888011 120.56656068 -83.75553726 150.39957371 -79.55859375 187.94921875 C-75.93596042 207.93066173 -64.26845922 227.68449409 -47.640625 239.44140625 C-34.59194678 248.26866462 -20.86340039 254.22058437 -5 255 C-3.96359375 255.06445312 -2.9271875 255.12890625 -1.859375 255.1953125 C12.78331116 255.69677435 26.83734053 252.35748458 39 244 C39.68634521 243.14631836 40.37269043 242.29263672 41.07983398 241.41308594 C45.18566005 238.02022708 48.29195178 238.35868843 53.45703125 238.51171875 C54.81147591 238.52233086 54.81147591 238.52233086 56.19328308 238.53315735 C59.06721088 238.56106681 61.93916472 238.62379768 64.8125 238.6875 C66.76494575 238.71258738 68.71742215 238.73539978 70.66992188 238.75585938 C75.44737102 238.81088211 80.22335126 238.89713002 85 239 C84.06043736 240.10847849 83.1190855 241.21544054 82.17700195 242.32177734 C81.65298294 242.93838226 81.12896393 243.55498718 80.58906555 244.1902771 C62.59566738 264.68223521 37.66253915 279.23551347 13.90771484 291.96630859 C12.21191287 292.88517544 10.53597542 293.84049232 8.86328125 294.80078125 C8.00089844 295.27902344 7.13851562 295.75726562 6.25 296.25 C5.20585937 296.84554687 5.20585937 296.84554687 4.140625 297.453125 C-2.19384796 299.07142101 -10.18321842 292.79588636 -15.5 289.8125 C-16.59699219 289.19753662 -17.69398438 288.58257324 -18.82421875 287.94897461 C-62.44065062 263.10730862 -103.94620898 228.51361646 -118.05900574 178.4723053 C-118.36953384 177.32644455 -118.68006195 176.1805838 -119 175 C-119.27157425 174.01200912 -119.5431485 173.02401825 -119.82295227 172.00608826 C-122.82272635 159.3152563 -122.37778781 146.56860099 -122.29296875 133.59765625 C-122.28736335 131.06318922 -122.28309772 128.5287189 -122.28010559 125.99424744 C-122.26988872 120.04478836 -122.24633505 114.09548043 -122.21605712 108.14609855 C-122.18229676 101.36234881 -122.16597325 94.57859014 -122.15097082 87.79477704 C-122.11977764 73.86309169 -122.06715378 59.93155519 -122 46 C-121.34341746 45.88760388 -120.68683493 45.77520777 -120.01035595 45.65940571 C-116.99967556 45.14297783 -113.9894618 44.62387695 -110.97924805 44.10473633 C-109.94650505 43.92799629 -108.91376205 43.75125626 -107.84972382 43.56916046 C-100.08496291 42.22722096 -92.44735856 40.64792645 -84.8125 38.6875 C-83.63961426 38.38900146 -82.46672852 38.09050293 -81.25830078 37.78295898 C-64.4925081 33.4146009 -48.64894396 27.3978765 -33 20 C-32.29327148 19.6685498 -31.58654297 19.33709961 -30.85839844 18.99560547 C-19.73804535 13.7433298 -9.57551598 7.79843824 0 0 Z " fill="#FDFDFD" transform="translate(258,351)"/>
<path d="M0 0 C0.66 0 1.32 0 2 0 C3.35351563 1.78149414 3.35351563 1.78149414 4.90625 4.28515625 C5.48036621 5.20111572 6.05448242 6.1170752 6.64599609 7.06079102 C7.25781738 8.05135498 7.86963867 9.04191895 8.5 10.0625 C9.77210965 12.09458185 11.04555239 14.12582977 12.3203125 16.15625 C12.94711914 17.1565625 13.57392578 18.156875 14.21972656 19.1875 C16.54190252 22.85610492 18.94329377 26.46594528 21.375 30.0625 C24.53759167 34.76438332 27.63153499 39.50085658 30.625 44.3125 C31.27726562 45.36050781 31.92953125 46.40851563 32.6015625 47.48828125 C34 50 34 50 34 52 C33.43037033 52.01030746 32.86074066 52.02061493 32.27384949 52.03123474 C26.35294092 52.13929277 20.43218475 52.25389145 14.51147461 52.37231445 C12.30089502 52.41566552 10.09028191 52.45734046 7.87963867 52.49731445 C4.70481251 52.55501266 1.53015514 52.61870862 -1.64453125 52.68359375 C-2.63524124 52.70030624 -3.62595123 52.71701874 -4.64668274 52.73423767 C-5.56741074 52.75418289 -6.48813873 52.77412811 -7.43676758 52.79467773 C-8.2472908 52.81022202 -9.05781403 52.8257663 -9.89289856 52.84178162 C-12.19146683 52.92809721 -12.19146683 52.92809721 -15 54 C-17.67174294 59.41694364 -17.29568505 65.16812489 -17.29052734 71.06665039 C-17.29724457 72.17140213 -17.30396179 73.27615387 -17.31088257 74.41438293 C-17.32985003 78.05885334 -17.33378567 81.70313959 -17.3359375 85.34765625 C-17.34236447 87.88301163 -17.34909276 90.41836627 -17.35610962 92.95372009 C-17.36807796 98.26384501 -17.37187646 103.57390141 -17.37060547 108.8840332 C-17.36940254 115.01673551 -17.39054121 121.14908676 -17.4220928 127.28170019 C-17.45141004 133.19130878 -17.45858136 139.10081015 -17.45738602 145.01049614 C-17.45974823 147.52114741 -17.46860641 150.0318012 -17.48405075 152.54240608 C-17.50361137 156.04948396 -17.49791179 159.55565212 -17.48583984 163.06274414 C-17.50269836 164.62061646 -17.50269836 164.62061646 -17.51989746 166.20996094 C-17.48135028 170.60926765 -17.43323708 173.2625308 -15.17178345 177.11204529 C-12.31707314 179.59367567 -9.94562463 180.11033132 -6.25 180.8125 C-5.07953125 181.04582031 -3.9090625 181.27914062 -2.703125 181.51953125 C-1.81109375 181.67808594 -0.9190625 181.83664062 0 182 C0 182.33 0 182.66 0 183 C-15.36032838 184.24824339 -29.29842124 177.30171458 -40.94921875 167.76171875 C-41.96435547 166.88966797 -41.96435547 166.88966797 -43 166 C-43.60457031 165.49082031 -44.20914063 164.98164062 -44.83203125 164.45703125 C-53.34838343 156.67120138 -58.78388977 145.95170167 -62 135 C-62.22429687 134.30003906 -62.44859375 133.60007812 -62.6796875 132.87890625 C-67.75553198 114.48766151 -61.63321241 95.99475262 -52.82763672 79.85058594 C-45.70755714 67.36306175 -37.33137189 55.69453579 -29 44 C-19.28078979 30.33178244 -9.52457474 16.60090291 -1.29296875 1.96484375 C-0.86628906 1.31644531 -0.43960938 0.66804688 0 0 Z " fill="#FDFDFD" transform="translate(258,407)"/>
<path d="M0 0 C0.75216797 0.00563965 1.50433594 0.0112793 2.27929688 0.01708984 C13.1431816 0.25336296 21.31022077 3.60451386 29.46875 10.8359375 C35.57258234 17.22004785 39.26349869 26.55547647 39.75 35.3125 C39.811875 35.99957031 39.87375 36.68664062 39.9375 37.39453125 C40.47197902 47.46612036 38.18649981 59.97988522 31.375 67.7109375 C30.83875 68.23945312 30.3025 68.76796875 29.75 69.3125 C29.21375 69.86164063 28.6775 70.41078125 28.125 70.9765625 C19.3474564 79.22582801 9.20160243 80.72416153 -2.453125 80.52734375 C-12.87840426 79.93743597 -21.09222933 75.74158223 -28.4375 68.4375 C-35.79245127 59.68989523 -38.01709562 48.71080284 -37.5390625 37.52734375 C-36.48139912 25.76441189 -33.17500116 16.23090974 -24.36328125 8 C-21.22454036 5.49364868 -17.99008131 3.74880499 -14.25 2.3125 C-12.90035156 1.77689453 -12.90035156 1.77689453 -11.5234375 1.23046875 C-7.64461002 0.14273073 -3.99590609 -0.03124591 0 0 Z " fill="#16191A" transform="translate(708.25,542.6875)"/>
<path d="M0 0 C7.83465493 6.32127433 12.82588981 15.09459536 14.25390625 25.12109375 C15.10057038 37.66837854 14.46090791 50.31341686 5.9296875 60.34765625 C5.37667969 60.93289063 4.82367187 61.518125 4.25390625 62.12109375 C3.69058594 62.74757813 3.12726563 63.3740625 2.546875 64.01953125 C-4.90737222 71.45808532 -14.63710033 73.47574173 -24.87109375 73.62109375 C-35.83371516 73.46494959 -45.00216446 70.00088145 -52.74609375 62.12109375 C-61.12154698 51.3814535 -62.75330292 39.42464826 -61.74609375 26.12109375 C-60.11917134 14.63773308 -55.17052939 6.25920381 -46.26953125 -1.1484375 C-32.40896224 -10.65344071 -13.4346644 -9.1921388 0 0 Z " fill="#16191A" transform="translate(618.74609375,549.87890625)"/>
<path d="M0 0 C1.31931519 0.01522705 1.31931519 0.01522705 2.6652832 0.03076172 C13.86840481 0.29891325 22.55720153 3.20293509 30.81640625 11.0390625 C36.5236748 17.30418437 38.86290899 22.97786296 40.0625 31.375 C33.1325 31.375 26.2025 31.375 19.0625 31.375 C18.0725 28.735 17.0825 26.095 16.0625 23.375 C9.07604603 17.57772968 1.82774171 17.77464098 -6.9375 18.375 C-11.6532902 19.94693007 -14.43735437 22.04782488 -16.9375 26.375 C-17.65607424 30.35541683 -17.44597984 33.28937101 -15.72265625 36.96875 C-10.78830918 43.61986115 -0.24746695 44.86360638 7.4375 46.75 C18.69391505 49.52670147 30.97745703 53.69180067 38.25 63.25 C42.80450009 71.10258636 43.43819383 80.00865045 41.52734375 88.8515625 C38.64139782 97.02052421 33.45237509 103.35982307 25.92578125 107.5703125 C12.3839084 113.95129971 -2.60613464 114.2335273 -16.74609375 109.6328125 C-26.02010074 105.97769591 -33.84386422 100.82848947 -38.25390625 91.62890625 C-40.28096192 86.42354028 -40.9375 83.12391718 -40.9375 77.375 C-34.3375 77.375 -27.7375 77.375 -20.9375 77.375 C-20.380625 78.9425 -19.82375 80.51 -19.25 82.125 C-17.12383964 87.35919339 -15.20057354 89.89237333 -9.96875 92.26953125 C-1.97825778 95.35037244 6.05053124 95.47032054 14.078125 92.41015625 C17.61460331 90.56533981 19.02429759 88.85966864 21.0625 85.375 C22.0124587 81.12563115 21.37279096 78.10841501 19.6875 74.125 C13.60414044 67.75195665 3.38701463 66.25172954 -4.875 64 C-27.68667366 57.52505562 -27.68667366 57.52505562 -33.9375 47.375 C-37.99815887 39.82650247 -39.25650957 32.95542509 -37.27734375 24.58203125 C-34.43615345 15.66487556 -29.35048372 9.07184993 -21.13598633 4.48730469 C-14.20520993 0.98073975 -7.71587924 -0.12893143 0 0 Z " fill="#16191A" transform="translate(495.9375,378.625)"/>
<path d="M0 0 C8.48539222 6.48797172 13.17258915 15.08847247 17.2734375 24.73828125 C17.2734375 25.39828125 17.2734375 26.05828125 17.2734375 26.73828125 C-1.75320517 28.38593882 -1.75320517 28.38593882 -6.140625 24.72265625 C-7.4765625 22.11328125 -7.4765625 22.11328125 -8.546875 19.359375 C-10.54268073 14.92498545 -14.47495786 12.83316281 -18.7265625 10.73828125 C-26.05178492 8.26063249 -35.25214895 8.56796038 -42.2265625 11.80078125 C-50.52150554 16.63609288 -54.40133172 23.54330454 -56.9140625 32.67578125 C-59.59818013 46.14225173 -58.10640709 59.73570525 -51.1015625 71.67578125 C-47.03502198 77.30876978 -40.60908635 81.5002257 -33.7265625 82.73828125 C-24.6416994 83.61100038 -17.76494576 81.90955765 -10.4140625 76.48828125 C-6.97125512 73.2453438 -6.97125512 73.2453438 -3.7265625 65.73828125 C3.2034375 65.73828125 10.1334375 65.73828125 17.2734375 65.73828125 C12.68767755 78.68630935 6.94412948 89.82386671 -5.83203125 96.31640625 C-18.83718344 101.82894335 -33.69217619 103.34908399 -47.09375 97.9921875 C-61.23887389 91.25541484 -69.86991267 82.34022662 -75.7265625 67.73828125 C-81.40604662 51.40723795 -79.88947402 33.50035317 -73.4765625 17.6484375 C-67.79721978 6.1445416 -58.66514601 -1.74276642 -46.7265625 -6.26171875 C-30.89440453 -10.95153061 -13.94855476 -9.09590222 0 0 Z " fill="#151819" transform="translate(532.7265625,522.26171875)"/>
<path d="M0 0 C0.83877686 -0.01015137 1.67755371 -0.02030273 2.54174805 -0.03076172 C10.92913881 0.08585529 18.2986502 2.15659675 24.9375 7.4375 C31.82763199 14.64810325 34.07399932 22.28879044 34.05102539 32.07568359 C34.05091209 33.69668472 34.05091209 33.69668472 34.05079651 35.35043335 C34.04563522 36.50064972 34.04047394 37.65086609 34.03515625 38.8359375 C34.0337413 40.02603424 34.03232635 41.21613098 34.03086853 42.44229126 C34.0252842 46.23238672 34.01273451 50.02242248 34 53.8125 C33.99498298 56.3867179 33.99042042 58.96093672 33.98632812 61.53515625 C33.97531989 67.8359604 33.95806597 74.13672009 33.9375 80.4375 C27.9975 80.4375 22.0575 80.4375 15.9375 80.4375 C15.4425 76.4775 15.4425 76.4775 14.9375 72.4375 C14.215625 73.200625 13.49375 73.96375 12.75 74.75 C5.07008246 82.08858787 -2.55829077 81.8728951 -12.6171875 81.72265625 C-17.78202131 81.50808382 -21.74526607 80.30230024 -26.0625 77.4375 C-26.97 76.90125 -27.8775 76.365 -28.8125 75.8125 C-33.86323893 70.48116446 -36.36457967 64.66007367 -36.625 57.3125 C-36.2682584 49.98990934 -34.14022781 45.09032247 -28.75 40.125 C-19.92329007 33.1843392 -10.00774355 33.25244403 0.68164062 32.83203125 C6.88489119 32.65296592 6.88489119 32.65296592 12.9375 31.4375 C14.34750664 28.61748673 14.18298451 26.56742745 13.9375 23.4375 C12.45378707 19.68457907 11.24276706 18.60774509 7.6875 16.625 C1.62735107 14.70595284 -3.22061764 14.91486898 -9.0625 17.4375 C-12.23654282 19.81803211 -12.44862446 21.40281114 -14.0625 25.4375 C-20.3325 25.4375 -26.6025 25.4375 -33.0625 25.4375 C-31.82148419 16.75038931 -29.01188763 11.17076456 -22.03125 5.7578125 C-14.90055825 0.97572161 -8.45255467 0.07290028 0 0 Z " fill="#16191A" transform="translate(581.0625,408.5625)"/>
<path d="M0 0 C7.53763668 6.17123003 11.9602526 13.72772915 14.31640625 23.15234375 C14.31640625 28.10234375 14.31640625 33.05234375 14.31640625 38.15234375 C-3.83359375 38.15234375 -21.98359375 38.15234375 -40.68359375 38.15234375 C-38.72717739 46.95621736 -37.34603582 51.48990168 -31.18359375 57.65234375 C-25.30114358 60.17339382 -18.51119776 60.43038529 -12.390625 58.38671875 C-9.7596663 56.9730693 -7.96879491 55.70057496 -6.578125 53.02734375 C-4.2914399 50.76423272 -3.5816287 50.85575929 -0.453125 50.76171875 C1.19967026 50.78826968 2.85223288 50.83591914 4.50390625 50.90234375 C5.34888672 50.92039062 6.19386719 50.9384375 7.06445312 50.95703125 C9.14892198 51.00413789 11.23280769 51.07588142 13.31640625 51.15234375 C12.31498613 57.84418641 8.48800942 63.4989456 3.44140625 67.96484375 C-7.68775824 75.75525889 -18.41334118 76.09862854 -31.68359375 75.15234375 C-39.97972067 73.64765406 -46.21048796 68.37399154 -51.68359375 62.15234375 C-59.83834707 49.62419814 -60.67293474 34.028202 -58.03125 19.5859375 C-54.36758812 8.53205637 -46.82417886 1.32538155 -36.671875 -3.87890625 C-25.06892392 -8.65269184 -10.19719629 -7.02077707 0 0 Z " fill="#16191A" transform="translate(730.68359375,414.84765625)"/>
<path d="M0 0 C7.46797781 6.14033731 9.60535719 9.38035738 11.8125 19.3125 C5.5425 19.3125 -0.7275 19.3125 -7.1875 19.3125 C-8.1775 17.3325 -9.1675 15.3525 -10.1875 13.3125 C-13.80380207 10.41701489 -16.61010268 9.9024689 -21.1875 9.9375 C-22.198125 9.92976562 -23.20875 9.92203125 -24.25 9.9140625 C-27.87172446 10.40530704 -30.58236101 11.70736101 -33.1875 14.3125 C-33.77192963 17.18487733 -33.77192963 17.18487733 -33.1875 20.3125 C-27.18879204 25.66774794 -19.2139917 26.34935773 -11.57226562 27.93554688 C-1.89833536 30.07044309 6.05564286 32.93888961 11.8125 41.3125 C14.4503467 46.08574641 14.53542937 51.12918078 13.34765625 56.359375 C11.28744652 62.6497195 7.97619412 67.49055116 2.1875 70.82421875 C-9.32447018 76.28301983 -23.36412882 77.40813658 -35.6875 73.8125 C-43.33068985 70.82031716 -49.21337298 66.04240454 -52.75 58.5625 C-54.01862297 55.42759168 -54.1875 53.84569846 -54.1875 50.3125 C-47.9175 50.3125 -41.6475 50.3125 -35.1875 50.3125 C-34.1975 52.2925 -33.2075 54.2725 -32.1875 56.3125 C-27.29290255 60.74822894 -22.46476711 60.51872586 -16.15234375 60.48046875 C-12.88424699 60.29531966 -10.18084124 59.64287388 -7.1875 58.3125 C-6.8832344 56.90263562 -6.62029092 55.48381189 -6.375 54.0625 C-6.22417969 53.27359375 -6.07335937 52.4846875 -5.91796875 51.671875 C-5.9863983 49.1616105 -5.9863983 49.1616105 -7.9453125 47.19921875 C-12.66392316 44.45332845 -17.57231965 43.52859956 -22.875 42.375 C-33.42489477 40.07641958 -43.90050936 37.74298596 -50.1875 28.3125 C-52.89272165 23.67497718 -52.81668891 18.52919283 -52.1875 13.3125 C-50.16540496 6.44706355 -45.56571928 1.70231692 -39.35546875 -1.6875 C-27.2095698 -7.19152393 -11.62442142 -6.15410546 0 0 Z " fill="#151819" transform="translate(860.1875,547.6875)"/>
<path d="M0 0 C1.11084961 -0.00193359 1.11084961 -0.00193359 2.24414062 -0.00390625 C3.38979492 0.00189453 3.38979492 0.00189453 4.55859375 0.0078125 C5.32623047 0.00394531 6.09386719 0.00007813 6.88476562 -0.00390625 C10.17536514 0.0018315 12.85368282 0.08534219 15.99609375 1.1328125 C15.99609375 5.7528125 15.99609375 10.3728125 15.99609375 15.1328125 C14.28421875 15.0709375 12.57234375 15.0090625 10.80859375 14.9453125 C6.37063254 14.93960084 3.47604408 15.11685554 -0.00390625 18.1328125 C-1.28837544 20.70175088 -1.33367769 22.89857587 -1.56640625 25.7578125 C-1.71078125 27.5315625 -1.85515625 29.3053125 -2.00390625 31.1328125 C3.60609375 31.1328125 9.21609375 31.1328125 14.99609375 31.1328125 C14.99609375 36.0828125 14.99609375 41.0328125 14.99609375 46.1328125 C9.38609375 46.1328125 3.77609375 46.1328125 -2.00390625 46.1328125 C-2.00390625 67.2528125 -2.00390625 88.3728125 -2.00390625 110.1328125 C-8.27390625 110.1328125 -14.54390625 110.1328125 -21.00390625 110.1328125 C-21.00390625 89.0128125 -21.00390625 67.8928125 -21.00390625 46.1328125 C-24.96390625 46.1328125 -28.92390625 46.1328125 -33.00390625 46.1328125 C-33.00390625 41.1828125 -33.00390625 36.2328125 -33.00390625 31.1328125 C-29.37390625 31.1328125 -25.74390625 31.1328125 -22.00390625 31.1328125 C-22.06578125 29.5240625 -22.12765625 27.9153125 -22.19140625 26.2578125 C-22.18240214 19.27062574 -20.90520106 13.25636825 -17.25390625 7.2578125 C-12.30778336 2.58647421 -6.83058794 0.01146209 0 0 Z " fill="#191D1E" transform="translate(654.00390625,378.8671875)"/>
<path d="M0 0 C14.85 0 29.7 0 45 0 C45 15.18 45 30.36 45 46 C30.15 46 15.3 46 0 46 C0 30.82 0 15.64 0 0 Z " fill="#64BE57" transform="translate(312,473)"/>
<path d="M0 0 C6.27 0 12.54 0 19 0 C19 35.64 19 71.28 19 108 C12.73 108 6.46 108 0 108 C0 72.36 0 36.72 0 0 Z " fill="#181B1B" transform="translate(642,514)"/>
<path d="M0 0 C14.52 0 29.04 0 44 0 C44 15.18 44 30.36 44 46 C29.48 46 14.96 46 0 46 C0 30.82 0 15.64 0 0 Z " fill="#3282D5" transform="translate(255,473)"/>
<path d="M0 0 C14.85 0 29.7 0 45 0 C45 14.52 45 29.04 45 44 C42.69179492 45.15410254 41.39215724 45.1210297 38.82568359 45.11352539 C37.95290771 45.11340454 37.08013184 45.11328369 36.1809082 45.11315918 C35.26269287 45.10804321 34.34447754 45.10292725 33.3984375 45.09765625 C32.13350464 45.09614563 32.13350464 45.09614563 30.84301758 45.09460449 C27.68699792 45.08936476 24.53099762 45.07540353 21.375 45.0625 C14.32125 45.041875 7.2675 45.02125 0 45 C0 30.15 0 15.3 0 0 Z " fill="#F6B334" transform="translate(312,532)"/>
<path d="M0 0 C14.52 0 29.04 0 44 0 C44 14.85 44 29.7 44 45 C29.48 45 14.96 45 0 45 C0 30.15 0 15.3 0 0 Z " fill="#EA4444" transform="translate(255,532)"/>
<path d="M0 0 C0 5.94 0 11.88 0 18 C-2.64 18 -5.28 18 -8 18 C-13.62202395 19.50650043 -17.93992891 21.93911319 -21 27 C-24.0923435 32.93023846 -24.4670299 37.89603327 -24.51171875 44.52734375 C-24.52966995 45.51626114 -24.54762115 46.50517853 -24.56611633 47.52406311 C-24.62000805 50.66183291 -24.65404739 53.79945242 -24.6875 56.9375 C-24.7206917 59.07358852 -24.75518307 61.20965727 -24.79101562 63.34570312 C-24.8757225 68.5636933 -24.94263449 73.78164052 -25 79 C-31.27 79 -37.54 79 -44 79 C-44 53.26 -44 27.52 -44 1 C-37.73 1 -31.46 1 -25 1 C-24.67 4.3 -24.34 7.6 -24 11 C-22.4840625 9.1128125 -22.4840625 9.1128125 -20.9375 7.1875 C-14.73238825 0.17572373 -8.95736988 -0.36811109 0 0 Z " fill="#16191A" transform="translate(801,543)"/>
<path d="M0 0 C4.72639315 2.56653089 7.59406081 6.13849302 9.7578125 11.0234375 C12.09636368 19.88191249 12.4038306 31.34583877 7.8828125 39.53515625 C5.07758174 43.26688524 2.09571043 45.73762777 -2.39453125 47.234375 C-9.57701925 47.93203705 -14.57364639 47.62973704 -20.39453125 43.234375 C-26.20777992 37.2640115 -26.75704613 30.79990831 -26.76953125 22.859375 C-26.79402344 22.04726563 -26.81851563 21.23515625 -26.84375 20.3984375 C-26.87478981 13.94215657 -25.48195842 8.41363079 -20.87597656 3.6706543 C-14.74375916 -1.57341673 -7.76363278 -2.48233609 0 0 Z " fill="#FCFCFC" transform="translate(717.39453125,559.765625)"/>
<path d="M0 0 C6.58011277 2.19337092 9.7877131 6.61722919 12.8125 12.5625 C15.65614045 21.12610687 14.70710684 30.36516779 11.34765625 38.61328125 C8.90208213 42.94442845 5.41172525 45.79413738 1 48 C-4.55531248 48.5072965 -9.41830236 48.76260422 -14.5 46.3125 C-20.1140533 41.1195007 -23.57840837 35.8191166 -24.25390625 28.09765625 C-24.41984482 19.32503712 -23.63460522 12.0835037 -18 5 C-12.02699628 -0.26193185 -7.81748614 -0.59793803 0 0 Z " fill="#FDFDFC" transform="translate(600,559)"/>
<path d="M0 0 C0.0814222 2.22855574 0.13938079 4.45797655 0.1875 6.6875 C0.23970703 8.54955078 0.23970703 8.54955078 0.29296875 10.44921875 C-0.0826021 15.00113745 -1.49602503 17.54973842 -4.75 20.6875 C-9.84622191 23.66029611 -15.1743219 24.61322927 -21 24 C-25.42157659 22.36803628 -28.35137769 20.97293346 -31 17 C-31.60133651 13.91236832 -31.63305837 11.08413054 -31 8 C-28.64323756 4.83286815 -25.73191069 3.24397023 -22 2 C-19.35095735 1.79600955 -16.7151037 1.62823688 -14.0625 1.5 C-9.35179047 1.27103662 -4.61831503 0 0 0 Z " fill="#FAFAFA" transform="translate(596,452)"/>
<path d="M0 0 C5.04541133 1.93717528 7.34698787 5.0567765 10.17578125 9.44140625 C10.92578125 11.50390625 10.92578125 11.50390625 10.92578125 17.50390625 C-0.62421875 17.50390625 -12.17421875 17.50390625 -24.07421875 17.50390625 C-23.0258489 10.16531731 -21.9073835 6.99978948 -16.44921875 2.19140625 C-11.44598529 -1.36352278 -5.93574779 -1.41966096 0 0 Z " fill="#FCFCFC" transform="translate(715.07421875,423.49609375)"/>
<path d="M0 0 C3.96 0 7.92 0 12 0 C12 0.33 12 0.66 12 1 C8.7 1 5.4 1 2 1 C2 4.63 2 8.26 2 12 C4.5390625 11.93489583 7.078125 11.86979167 9.6171875 11.8046875 C12 12 12 12 14 14 C14.24050903 16.5942688 14.24050903 16.5942688 14.22705078 19.91845703 C14.22682419 21.78016037 14.22682419 21.78016037 14.22659302 23.67947388 C14.216379 25.0389217 14.205947 26.3983679 14.1953125 27.7578125 C14.19158284 29.14500729 14.18873565 30.53220471 14.18673706 31.91940308 C14.17909684 35.57240051 14.15944516 39.22523917 14.1373291 42.87817383 C14.11687896 46.60495862 14.10773713 50.33176904 14.09765625 54.05859375 C14.07619948 61.37247663 14.04101434 68.68619585 14 76 C18.95 76 23.9 76 29 76 C28.98952637 74.13230957 28.97905273 72.26461914 28.96826172 70.34033203 C28.93604477 64.17764697 28.91304559 58.0149818 28.89637566 51.85223579 C28.88592702 48.1148217 28.8717483 44.3774985 28.84912109 40.64013672 C28.82743096 37.035095 28.81543951 33.43014083 28.81024551 29.82503891 C28.80654284 28.44788102 28.79931266 27.07072806 28.78853989 25.69360733 C28.77407665 23.76860455 28.77318352 21.84351413 28.77294922 19.91845703 C28.768508 18.82147491 28.76406677 17.7244928 28.75949097 16.5942688 C29 14 29 14 31 12 C33.58064129 11.85502015 36.04943884 11.81322455 38.625 11.875 C39.33140625 11.88402344 40.0378125 11.89304687 40.765625 11.90234375 C42.51056098 11.92592397 44.25532295 11.96179539 46 12 C46 8.37 46 4.74 46 1 C41.05 1 36.1 1 31 1 C31 0.67 31 0.34 31 0 C36.61 0 42.22 0 48 0 C48 4.62 48 9.24 48 14 C42.39 14 36.78 14 31 14 C31 35.12 31 56.24 31 78 C24.73 78 18.46 78 12 78 C12 56.88 12 35.76 12 14 C8.04 14 4.08 14 0 14 C0 9.38 0 4.76 0 0 Z " fill="#010202" transform="translate(621,411)"/>
<path d="M0 0 C6.27 0 12.54 0 19 0 C19 17.82 19 35.64 19 54 C18.01 54.495 18.01 54.495 17 55 C17 37.51 17 20.02 17 2 C12.05 2 7.1 2 2 2 C2 36.32 2 70.64 2 106 C6.95 106 11.9 106 17 106 C17 106.33 17 106.66 17 107 C11.39 107 5.78 107 0 107 C0 71.69 0 36.38 0 0 Z " fill="#111112" transform="translate(642,514)"/>
<path d="M0 0 C0.66 0.33 1.32 0.66 2 1 C2.33 39.28 2.66 77.56 3 117 C4.98 117.99 6.96 118.98 9 120 C9 120.33 9 120.66 9 121 C6.8125 121.375 6.8125 121.375 4 121 C1.00434237 118.3579086 -0.69606754 116.59010461 -1.45307541 112.62961388 C-1.62301041 109.6984391 -1.62968068 106.80569904 -1.58349609 103.86987305 C-1.58583252 102.75869614 -1.58816895 101.64751923 -1.59057617 100.50267029 C-1.5921881 96.83853823 -1.55818949 93.17567171 -1.5234375 89.51171875 C-1.51664834 86.96678624 -1.51192599 84.42184744 -1.50918579 81.87690735 C-1.49851391 76.5498199 -1.47251214 71.22315949 -1.43212891 65.89624023 C-1.37516489 58.37513259 -1.35295712 50.85420527 -1.33684421 43.33291566 C-1.32290086 37.49665811 -1.29830742 31.66043798 -1.2734375 25.82421875 C-1.26852673 24.57366888 -1.26361595 23.32311901 -1.25855637 22.03467369 C-1.24236133 18.51743617 -1.21896079 15.00033067 -1.19287109 11.4831543 C-1.18861115 10.43019165 -1.1843512 9.377229 -1.17996216 8.2923584 C-1.17136169 7.34044113 -1.16276123 6.38852386 -1.15390015 5.40776062 C-1.14832785 4.57580012 -1.14275555 3.74383963 -1.13701439 2.88666821 C-1 1 -1 1 0 0 Z " fill="#242626" transform="translate(241,466)"/>
<path d="M0 0 C6.27 0 12.54 0 19 0 C19 3.63 19 7.26 19 11 C18.67 11 18.34 11 18 11 C18 8.03 18 5.06 18 2 C12.72 2 7.44 2 2 2 C2 26.42 2 50.84 2 76 C1.34 76 0.68 76 0 76 C0 50.92 0 25.84 0 0 Z " fill="#030304" transform="translate(757,544)"/>
<path d="M0 0 C0.33 0 0.66 0 1 0 C1 24.09 1 48.18 1 73 C5.29 73 9.58 73 14 73 C14 68.71 14 64.42 14 60 C14.33 60 14.66 60 15 60 C15.33 56.37 15.66 52.74 16 49 C16.33 49 16.66 49 17 49 C17 57.91 17 66.82 17 76 C10.73 76 4.46 76 -2 76 C-2 75.34 -2 74.68 -2 74 C-1.34 74 -0.68 74 0 74 C0 49.58 0 25.16 0 0 Z " fill="#222525" transform="translate(759,546)"/>
<path d="M0 0 C0.33 0 0.66 0 1 0 C1 17.82 1 35.64 1 54 C-4.94 54 -10.88 54 -17 54 C-17 51.03 -17 48.06 -17 45 C-16.67 45 -16.34 45 -16 45 C-16 47.31 -16 49.62 -16 52 C-15.01 51.505 -15.01 51.505 -14 51 C-10.04 51 -6.08 51 -2 51 C-2 36.48 -2 21.96 -2 7 C-1.67 7 -1.34 7 -1 7 C-0.67 4.69 -0.34 2.38 0 0 Z " fill="#252828" transform="translate(614,435)"/>
<path d="M0 0 C0 17.82 0 35.64 0 54 C-0.99 54.495 -0.99 54.495 -2 55 C-2 37.51 -2 20.02 -2 2 C-6.95 2 -11.9 2 -17 2 C-17 1.67 -17 1.34 -17 1 C-14.54171921 0.83252588 -12.08338135 0.6659856 -9.625 0.5 C-8.92632813 0.45230469 -8.22765625 0.40460937 -7.5078125 0.35546875 C-2.2265625 0 -2.2265625 0 0 0 Z " fill="#020304" transform="translate(661,514)"/>
<path d="M0 0 C3.96 0 7.92 0 12 0 C12 0.33 12 0.66 12 1 C8.7 1 5.4 1 2 1 C2 4.63 2 8.26 2 12 C3.629375 11.979375 5.25875 11.95875 6.9375 11.9375 C8.62499341 11.91613932 10.31391034 11.92794489 12 12 C13 13 13 13 13.12025452 15.58790588 C13.1169236 17.31665199 13.1169236 17.31665199 13.11352539 19.08032227 C13.11344986 20.38159561 13.11337433 21.68286896 13.11329651 23.02357483 C13.10818909 24.45451902 13.10297308 25.88546282 13.09765625 27.31640625 C13.09579203 28.7722926 13.09436815 30.22817957 13.09336853 31.68406677 C13.08954365 35.52279379 13.07971364 39.36148319 13.06866455 43.20019531 C13.05844978 47.11457816 13.05387077 51.02896706 13.04882812 54.94335938 C13.03809134 62.62892343 13.02101529 70.31445645 13 78 C12.67 78 12.34 78 12 78 C12 56.88 12 35.76 12 14 C8.04 14 4.08 14 0 14 C0 9.38 0 4.76 0 0 Z " fill="#131515" transform="translate(621,411)"/>
<path d="M0 0 C0.33 0 0.66 0 1 0 C2.05751676 6.87385894 2 12.83937388 2 20 C15.53 20 29.06 20 43 20 C43 20.66 43 21.32 43 22 C28.81 22 14.62 22 0 22 C0 14.74 0 7.48 0 0 Z " fill="#F6C33C" transform="translate(312,555)"/>
<path d="M0 0 C3.03333922 3.03333922 2.6646334 5.7743808 3 10 C1.21634659 11.78365341 -1.17617005 11.12846636 -3.55076599 11.13894653 C-4.32678665 11.1369223 -5.10280731 11.13489807 -5.90234375 11.1328125 C-6.69524307 11.13376923 -7.4881424 11.13472595 -8.30506897 11.13571167 C-9.9855253 11.13639351 -11.66598425 11.13453896 -13.34643555 11.13037109 C-15.92307445 11.1250299 -18.49953848 11.13031228 -21.07617188 11.13671875 C-22.70572955 11.13605783 -24.33528712 11.13477638 -25.96484375 11.1328125 C-26.73884018 11.13483673 -27.51283661 11.13686096 -28.31028748 11.13894653 C-33.77008834 11.11495583 -33.77008834 11.11495583 -36 10 C-35.67 9.01 -35.34 8.02 -35 7 C-35 7.66 -35 8.32 -35 9 C-23.12 9 -11.24 9 1 9 C0.505 4.545 0.505 4.545 0 0 Z " fill="#010202" transform="translate(725,432)"/>
<path d="M0 0 C4.27077656 -0.05794812 8.54145236 -0.09357874 12.8125 -0.125 C14.02744141 -0.14175781 15.24238281 -0.15851563 16.49414062 -0.17578125 C17.65751953 -0.18222656 18.82089844 -0.18867188 20.01953125 -0.1953125 C21.62985229 -0.21102295 21.62985229 -0.21102295 23.27270508 -0.22705078 C26 0 26 0 29 2 C26.49450555 3.25274723 24.80264368 3.12029624 21.99951172 3.11352539 C20.43811966 3.11341209 20.43811966 3.11341209 18.84518433 3.11329651 C17.71807037 3.10813522 16.59095642 3.10297394 15.4296875 3.09765625 C14.27832306 3.0962413 13.12695862 3.09482635 11.94070435 3.09336853 C8.25211014 3.08775716 4.56357595 3.0752027 0.875 3.0625 C-1.62109288 3.05748647 -4.1171867 3.05292331 -6.61328125 3.04882812 C-12.74220809 3.03778403 -18.87109976 3.0210348 -25 3 C-25 2.67 -25 2.34 -25 2 C-12.625 1.505 -12.625 1.505 0 1 C0 0.67 0 0.34 0 0 Z " fill="#1D2021" transform="translate(338,459)"/>
<path d="M0 0 C0.99 0 1.98 0 3 0 C3.04241723 2.33294775 3.04092937 4.66702567 3 7 C2.67 7.33 2.34 7.66 2 8 C2 9.98 2 11.96 2 14 C-15.82 14 -33.64 14 -52 14 C-52 13.67 -52 13.34 -52 13 C-34.84 13 -17.68 13 0 13 C0 8.71 0 4.42 0 0 Z " fill="#27292A" transform="translate(742,438)"/>
<path d="M0 0 C0.33 0 0.66 0 1 0 C1 6.93 1 13.86 1 21 C1.66 21 2.32 21 3 21 C2.95875 21.7425 2.9175 22.485 2.875 23.25 C2.81279555 25.98519287 2.81279555 25.98519287 4.0625 28.125 C4.371875 28.74375 4.68125 29.3625 5 30 C4.67 30.99 4.34 31.98 4 33 C-0.60589 25.57114516 -1.1667316 19.37453073 -1.125 10.75 C-1.12886719 9.9353125 -1.13273437 9.120625 -1.13671875 8.28125 C-1.126739 2.25347799 -1.126739 2.25347799 0 0 Z " fill="#1E1F1F" transform="translate(455,557)"/>
<path d="M0 0 C6.93 0 13.86 0 21 0 C20.67 0.99 20.34 1.98 20 3 C15.61040324 4.07799528 11.30699277 4.18343259 6.8125 4.1875 C5.72678711 4.20586914 5.72678711 4.20586914 4.61914062 4.22460938 C2.74460529 4.22984064 0.8705365 4.12248796 -1 4 C-1.66 3.34 -2.32 2.68 -3 2 C-2.01 2 -1.02 2 0 2 C0 1.34 0 0.68 0 0 Z " fill="#262727" transform="translate(491,487)"/>
<path d="M0 0 C5.94 0 11.88 0 18 0 C17.12295342 4.38523289 16.55056254 6.16384472 14.1875 9.6875 C13.68605469 10.45449219 13.18460938 11.22148437 12.66796875 12.01171875 C10.91209109 14.10479071 9.50828873 14.98253798 7 16 C7.40992188 15.48050781 7.81984375 14.96101563 8.2421875 14.42578125 C8.78101563 13.72839844 9.31984375 13.03101563 9.875 12.3125 C10.40867187 11.62800781 10.94234375 10.94351562 11.4921875 10.23828125 C13.33440023 7.67324438 13.33440023 7.67324438 15 3 C9.72 2.67 4.44 2.34 -1 2 C-0.67 1.34 -0.34 0.68 0 0 Z " fill="#040505" transform="translate(726,466)"/>
<path d="M0 0 C3.96 0 7.92 0 12 0 C12 0.33 12 0.66 12 1 C8.7 1 5.4 1 2 1 C2 4.63 2 8.26 2 12 C5.3 12 8.6 12 12 12 C12.33 12.66 12.66 13.32 13 14 C8.71 14 4.42 14 0 14 C0 9.38 0 4.76 0 0 Z " fill="#020303" transform="translate(621,411)"/>
<path d="M0 0 C6.27 0 12.54 0 19 0 C19.99 1.98 20.98 3.96 22 6 C24.56197123 8.81356892 24.56197123 8.81356892 27 11 C24.66471585 10.82701599 23.30822418 10.29774631 21.62109375 8.66796875 C18 4.42788462 18 4.42788462 18 2 C9.585 2.495 9.585 2.495 1 3 C0.67 2.01 0.34 1.02 0 0 Z " fill="#040505" transform="translate(806,598)"/>
<path d="M0 0 C0.99 0.495 0.99 0.495 2 1 C2.59355614 3.64860427 2.74209269 6.29197322 3 9 C3.66 9 4.32 9 5 9 C5.05418326 11.08304538 5.09287551 13.16649768 5.125 15.25 C5.14820313 16.41015625 5.17140625 17.5703125 5.1953125 18.765625 C5.0103949 21.82786046 4.60823023 23.44202751 3 26 C3 24.02 3 22.04 3 20 C2.67 20 2.34 20 2 20 C1.93941406 19.05898438 1.87882813 18.11796875 1.81640625 17.1484375 C1.69072266 15.28058594 1.69072266 15.28058594 1.5625 13.375 C1.48128906 12.14523437 1.40007813 10.91546875 1.31640625 9.6484375 C1.03336056 6.38467612 0.58961047 3.22056141 0 0 Z " fill="#1F2222" transform="translate(726,568)"/>
<path d="M0 0 C0.99 0 1.98 0 3 0 C3.97352262 5.59775505 4.61204357 11.32562999 4 17 C3.34 17.66 2.68 18.32 2 19 C1 18 1 18 0.90234375 15.05859375 C0.91394531 13.86363281 0.92554688 12.66867187 0.9375 11.4375 C0.94652344 10.23996094 0.95554687 9.04242187 0.96484375 7.80859375 C0.97644531 6.88175781 0.98804688 5.95492187 1 5 C0.67 5 0.34 5 0 5 C0 3.35 0 1.7 0 0 Z " fill="#2C2D2D" transform="translate(744,571)"/>
<path d="M0 0 C3 3 3 3 3.29296875 6.57421875 C3.27309338 7.94561913 3.23741111 9.31686405 3.1875 10.6875 C3.17396484 11.38939453 3.16042969 12.09128906 3.14648438 12.81445312 C3.11120182 14.54329829 3.05739583 16.27174765 3 18 C2.67 17.34 2.34 16.68 2 16 C1.34 16 0.68 16 0 16 C0 10.72 0 5.44 0 0 Z " fill="#252627" transform="translate(688,575)"/>
<path d="M0 0 C1.14077657 3.42232972 1.09815117 6.08673217 1.0625 9.6875 C1.05347656 10.86699219 1.04445313 12.04648437 1.03515625 13.26171875 C1.02355469 14.16535156 1.01195312 15.06898438 1 16 C0.34 16 -0.32 16 -1 16 C-1.97551509 13.07345473 -2.16478088 11.05345004 -2.1875 8 C-2.20167969 7.13375 -2.21585937 6.2675 -2.23046875 5.375 C-2 3 -2 3 0 0 Z " fill="#212223" transform="translate(460,403)"/>
<path d="M0 0 C0.33 0 0.66 0 1 0 C1 9.24 1 18.48 1 28 C-0.32 26.68 -1.64 25.36 -3 24 C-2.75 21.25 -2.75 21.25 -2 19 C-1.67 19 -1.34 19 -1 19 C-0.67 12.73 -0.34 6.46 0 0 Z " fill="#67C75A" transform="translate(355,474)"/>
<path d="M0 0 C0 3.88939843 -1.19737718 4.7649445 -3.75 7.625 C-4.44609375 8.42164063 -5.1421875 9.21828125 -5.859375 10.0390625 C-8.01014951 12.00929755 -9.15547268 12.6284176 -12 13 C-11.67227665 9.96173143 -11.02712283 9.02538057 -8.75 6.89453125 C-7.8425 6.20746094 -6.935 5.52039063 -6 4.8125 C-4.63875 3.77029297 -4.63875 3.77029297 -3.25 2.70703125 C-2.5075 2.14371094 -1.765 1.58039062 -1 1 C-0.67 0.67 -0.34 0.34 0 0 Z " fill="#121415" transform="translate(328,604)"/>
<path d="M0 0 C2.7885289 -0.22107787 5.34653181 -0.28107535 8.125 -0.1875 C8.87910156 -0.17396484 9.63320313 -0.16042969 10.41015625 -0.14648438 C12.27374127 -0.11109985 14.13695978 -0.05729167 16 0 C16.33 0.99 16.66 1.98 17 3 C10.73 3 4.46 3 -2 3 C-1.34 2.01 -0.68 1.02 0 0 Z " fill="#333636" transform="translate(855,564)"/>
<path d="M0 0 C6.27 0.33 12.54 0.66 19 1 C18.34 1.66 17.68 2.32 17 3 C14.40730017 2.98252112 11.9474846 2.86231408 9.375 2.625 C8.66859375 2.56828125 7.9621875 2.5115625 7.234375 2.453125 C5.48878639 2.31159079 3.74426327 2.15702613 2 2 C2 3.98 2 5.96 2 8 C1.34 7.34 0.68 6.68 0 6 C0 4.02 0 2.04 0 0 Z " fill="#0F1212" transform="translate(455,456)"/>
<path d="M0 0 C1.22589844 0.15275391 1.22589844 0.15275391 2.4765625 0.30859375 C3.41628906 0.43427734 3.41628906 0.43427734 4.375 0.5625 C4.045 1.5525 3.715 2.5425 3.375 3.5625 C1.8949159 3.44887738 0.41589926 3.32127092 -1.0625 3.1875 C-1.88621094 3.11789062 -2.70992188 3.04828125 -3.55859375 2.9765625 C-4.24050781 2.83992188 -4.92242187 2.70328125 -5.625 2.5625 C-5.955 1.9025 -6.285 1.2425 -6.625 0.5625 C-4.10446405 -0.69776798 -2.7707902 -0.35624445 0 0 Z " fill="#202222" transform="translate(390.625,380.4375)"/>
<path d="M0 0 C1.41623216 -0.05447047 2.83308191 -0.09300508 4.25 -0.125 C5.03890625 -0.14820313 5.8278125 -0.17140625 6.640625 -0.1953125 C9.22046936 0.01825077 10.7475059 0.77749252 13 2 C13.66 2 14.32 2 15 2 C14.67 2.99 14.34 3.98 14 5 C12.03951648 4.7451971 10.08159327 4.47063056 8.125 4.1875 C6.48917969 3.96126953 6.48917969 3.96126953 4.8203125 3.73046875 C2 3 2 3 0 0 Z " fill="#232526" transform="translate(834,554)"/>
<path d="M0 0 C0 3.25811062 -0.5522078 5.10441559 -2 8 C-2.99 8.33 -3.98 8.66 -5 9 C-5.33 9.99 -5.66 10.98 -6 12 C-6.33 11.01 -6.66 10.02 -7 9 C-5.02154932 5.60837026 -2.9244745 2.63202705 0 0 Z " fill="#0E0F10" transform="translate(553,448)"/>
<path d="M0 0 C8.57142857 0.85714286 8.57142857 0.85714286 12 3 C11.67 3.66 11.34 4.32 11 5 C7.7 4.34 4.4 3.68 1 3 C0.67 2.01 0.34 1.02 0 0 Z " fill="#1F2122" transform="translate(347,388)"/>
<path d="M0 0 C0.99 0 1.98 0 3 0 C3 3 3 3 1.25 4.82421875 C0.5075 5.43910156 -0.235 6.05398438 -1 6.6875 C-1.7425 7.31011719 -2.485 7.93273437 -3.25 8.57421875 C-3.8275 9.04472656 -4.405 9.51523437 -5 10 C-5.66 9.67 -6.32 9.34 -7 9 C-6.401875 8.443125 -5.80375 7.88625 -5.1875 7.3125 C-2.89983225 5.07831958 -2.89983225 5.07831958 -1.4375 2.25 C-0.963125 1.5075 -0.48875 0.765 0 0 Z " fill="#1F2223" transform="translate(331,601)"/>
<path d="M0 0 C0.66 0 1.32 0 2 0 C2.49230769 7.26153846 2.49230769 7.26153846 0 11 C-0.66 11.66 -1.32 12.32 -2 13 C-1.39174965 8.65535464 -0.73832608 4.32448133 0 0 Z " fill="#242526" transform="translate(872,594)"/>
<path d="M0 0 C5.28 0 10.56 0 16 0 C15.67 0.99 15.34 1.98 15 3 C13.35 3 11.7 3 10 3 C10 2.34 10 1.68 10 1 C6.7 1 3.4 1 0 1 C0 0.67 0 0.34 0 0 Z " fill="#202324" transform="translate(702,620)"/>
<path d="M0 0 C3.03333922 3.03333922 2.6646334 5.7743808 3 10 C2 11 2 11 -0.5625 11.0625 C-1.366875 11.041875 -2.17125 11.02125 -3 11 C-2.67 10.34 -2.34 9.68 -2 9 C-1.01 9 -0.02 9 1 9 C0.67 6.03 0.34 3.06 0 0 Z " fill="#090A0B" transform="translate(725,432)"/>
<path d="M0 0 C2.64 0.33 5.28 0.66 8 1 C8 1.99 8 2.98 8 4 C5.03 3.67 2.06 3.34 -1 3 C-0.67 2.01 -0.34 1.02 0 0 Z " fill="#252728" transform="translate(356,375)"/>
<path d="M0 0 C1.64767247 0.28109113 3.29313145 0.57518526 4.9375 0.875 C5.85402344 1.03742187 6.77054688 1.19984375 7.71484375 1.3671875 C8.46894531 1.57601562 9.22304688 1.78484375 10 2 C10.33 2.66 10.66 3.32 11 4 C7.37 3.67 3.74 3.34 0 3 C0 2.01 0 1.02 0 0 Z " fill="#1F2122" transform="translate(841,588)"/>
<path d="M0 0 C1.32 0.66 2.64 1.32 4 2 C3.01 2.66 2.02 3.32 1 4 C-0.33790641 4.99387334 -1.67218122 5.9926892 -3 7 C-3.1875 4.625 -3.1875 4.625 -3 2 C-2.01 1.34 -1.02 0.68 0 0 Z " fill="#212324" transform="translate(246,459)"/>
<path d="M0 0 C1.8871875 0.061875 1.8871875 0.061875 3.8125 0.125 C2.8225 0.455 1.8325 0.785 0.8125 1.125 C0.8125 1.785 0.8125 2.445 0.8125 3.125 C-1.8275 2.795 -4.4675 2.465 -7.1875 2.125 C-4.09861478 0.06574319 -3.47814073 -0.1140374 0 0 Z " fill="#28292A" transform="translate(245.1875,602.875)"/>
<path d="M0 0 C0.99 0 1.98 0 3 0 C3 2.64 3 5.28 3 8 C2.01 7.67 1.02 7.34 0 7 C0 4.69 0 2.38 0 0 Z " fill="#2A2C2D" transform="translate(177,513)"/>
<path d="M0 0 C0.98120464 3.05263664 0.98120464 4.94736336 0 8 C-0.99 8 -1.98 8 -3 8 C-2.67 6.35 -2.34 4.7 -2 3 C-1.34 3 -0.68 3 0 3 C0 2.01 0 1.02 0 0 Z " fill="#1E2021" transform="translate(181,504)"/>
<path d="M0 0 C2.64 0.33 5.28 0.66 8 1 C7.01 1.495 7.01 1.495 6 2 C6 2.66 6 3.32 6 4 C3.03 3.505 3.03 3.505 0 3 C0 2.01 0 1.02 0 0 Z " fill="#232525" transform="translate(488,439)"/>
<path d="M0 0 C0.33 0.99 0.66 1.98 1 3 C-1.64 3 -4.28 3 -7 3 C-7 2.34 -7 1.68 -7 1 C-4.53721199 -0.231394 -2.7204945 -0.07159196 0 0 Z " fill="#1F2022" transform="translate(506,379)"/>
<path d="M0 0 C0 0.66 0 1.32 0 2 C-3.63 1.67 -7.26 1.34 -11 1 C-11 0.67 -11 0.34 -11 0 C-3.375 -1.125 -3.375 -1.125 0 0 Z " fill="#1E2021" transform="translate(852,545)"/>
</svg>
